<svg width="49" height="49" viewBox="0 0 49 49" fill="none" xmlns="http://www.w3.org/2000/svg">
<g clip-path="url(#clip0_1_558)">
<path fill-rule="evenodd" clip-rule="evenodd" d="M0.643799 24.0014C0.643799 10.7375 11.4348 -0.0512695 24.6963 -0.0512695C37.9578 -0.0512695 48.7488 10.7375 48.7488 24.0014C48.7488 37.2653 37.9578 48.054 24.6963 48.054C11.4348 48.054 0.643799 37.2653 0.643799 24.0014ZM2.2488 24.0014C2.2488 36.3802 12.3183 46.4519 24.6963 46.4519C37.0743 46.4519 47.1438 36.3802 47.1438 24.0014C47.1438 11.6225 37.0743 1.55084 24.6963 1.55084C12.3183 1.55084 2.2488 11.6225 2.2488 24.0014ZM25.9444 10.5003H29.9464C30.0481 10.4867 30.1515 10.4967 30.2486 10.5296C30.3458 10.5625 30.434 10.6173 30.5064 10.6899C30.5789 10.7625 30.6336 10.8509 30.6663 10.9481C30.699 11.0453 30.7088 11.1487 30.6949 11.2504V15.7507C30.7474 15.9697 30.6574 16.1767 30.5014 16.3282C30.3899 16.4366 30.2445 16.4544 30.0945 16.4728C30.0347 16.4801 29.9743 16.4875 29.9149 16.5007H27.2314C27.1083 16.4934 27.0023 16.4842 26.9105 16.4762C26.3392 16.4264 26.3218 16.4249 26.1964 17.2508L26.1919 19.5009H29.9464C30.0481 19.4873 30.1516 19.4974 30.2488 19.5303C30.346 19.5632 30.4343 19.618 30.5068 19.6906C30.5794 19.7631 30.6342 19.8514 30.6671 19.9486C30.7 20.0458 30.71 20.1493 30.6964 20.251V24.7513C30.71 24.853 30.7 24.9564 30.6671 25.0536C30.6342 25.1508 30.5794 25.2391 30.5068 25.3117C30.4343 25.3842 30.346 25.4391 30.2488 25.472C30.1516 25.5049 30.0481 25.5149 29.9464 25.5013H26.1964L26.1934 36.7521C26.3344 37.1946 25.9759 37.5532 25.5334 37.5022H20.9509C20.8491 37.5153 20.7457 37.5049 20.6485 37.4719C20.5513 37.4389 20.4629 37.3842 20.3901 37.3118C20.3173 37.2394 20.262 37.1514 20.2285 37.0544C20.1949 36.9574 20.1839 36.854 20.1964 36.7521V25.5013H17.9464C17.8448 25.5149 17.7413 25.5049 17.6441 25.472C17.5469 25.4391 17.4586 25.3842 17.3861 25.3117C17.3135 25.2391 17.2587 25.1508 17.2258 25.0536C17.1929 24.9564 17.1829 24.853 17.1964 24.7513V20.251C17.1829 20.1493 17.1929 20.0458 17.2258 19.9486C17.2587 19.8514 17.3135 19.7631 17.3861 19.6906C17.4586 19.618 17.5469 19.5632 17.6441 19.5303C17.7413 19.4974 17.8448 19.4873 17.9464 19.5009H20.1964V17.0183C20.1964 13.604 20.8474 10.4493 25.9444 10.5003ZM29.1424 14.9166V12.0514H25.9429C22.3744 12.0514 21.6949 13.6535 21.6949 17.0168V20.2495C21.6949 20.4625 21.6679 20.6665 21.5179 20.818C21.4434 20.8924 21.355 20.9513 21.2577 20.9914C21.1604 21.0316 21.0562 21.0522 20.9509 21.052H18.6964V23.9502H20.9509C21.3949 23.9502 21.6964 24.3088 21.6964 24.7513V36.0021H24.7324L24.7339 24.7498C24.7343 24.5372 24.8191 24.3334 24.9695 24.1833C25.12 24.0331 25.3239 23.9487 25.5364 23.9487H29.1964V21.0505H25.5334C25.4281 21.0505 25.3239 21.0298 25.2266 20.9894C25.1293 20.9491 25.0409 20.8899 24.9665 20.8154C24.8921 20.7408 24.8332 20.6523 24.793 20.555C24.7528 20.4576 24.7322 20.3533 24.7324 20.248L24.7384 17.4038C24.7384 16.1092 24.9334 14.8446 27.2629 14.8446L29.1424 14.9166Z" fill="#5C5C5C"/>
</g>
<defs>
<clipPath id="clip0_1_558">
<rect width="48" height="48.0033" fill="white" transform="translate(0.696533)"/>
</clipPath>
</defs>
</svg>
