<svg width="49" height="49" viewBox="0 0 49 49" fill="none" xmlns="http://www.w3.org/2000/svg">
<g clip-path="url(#clip0_1_552)">
<path fill-rule="evenodd" clip-rule="evenodd" d="M0.604004 24.0019C0.604004 10.738 11.395 -0.0507812 24.6565 -0.0507812C37.918 -0.0507812 48.709 10.738 48.709 24.0019C48.709 37.2658 37.918 48.0545 24.6565 48.0545C11.395 48.0545 0.604004 37.2658 0.604004 24.0019ZM2.209 24.0019C2.209 36.3807 12.2785 46.4524 24.6565 46.4524C37.0345 46.4524 47.104 36.3807 47.104 24.0019C47.104 11.623 37.0345 1.55133 24.6565 1.55133C12.2785 1.55133 2.209 11.623 2.209 24.0019ZM24.6539 13.5824C28.047 13.5824 28.4494 13.5952 29.789 13.6566C30.5948 13.6661 31.3929 13.8141 32.1485 14.094C32.6967 14.3055 33.1945 14.6294 33.61 15.0449C34.0255 15.4604 34.3494 15.9583 34.5609 16.5065C34.8407 17.2622 34.9887 18.0604 34.9983 18.8662C35.0597 20.2059 35.0724 20.6083 35.0724 24.0027C35.0724 27.397 35.0597 27.7973 34.9983 29.1371C34.9887 29.9429 34.8407 30.741 34.5609 31.4967C34.3494 32.0449 34.0255 32.5428 33.61 32.9583C33.1945 33.3738 32.6967 33.6978 32.1485 33.9093C31.3929 34.1891 30.5948 34.3371 29.789 34.3467C28.4494 34.4081 28.047 34.4208 24.6539 34.4208C21.2609 34.4208 20.8585 34.4081 19.5188 34.3467C18.7131 34.3371 17.915 34.1891 17.1594 33.9093C16.6112 33.6978 16.1133 33.3738 15.6978 32.9583C15.2823 32.5428 14.9584 32.0449 14.747 31.4967C14.4671 30.741 14.3192 29.9429 14.3096 29.1371C14.2482 27.7973 14.2355 27.3949 14.2355 24.0016C14.2355 20.6083 14.2482 20.2059 14.3096 18.8662C14.3192 18.0604 14.4671 17.2622 14.747 16.5065C14.9584 15.9583 15.2823 15.4604 15.6978 15.0449C16.1133 14.6294 16.6112 14.3055 17.1594 14.094C17.915 13.8141 18.7131 13.6661 19.5188 13.6566C20.8585 13.5952 21.2609 13.5824 24.6539 13.5824ZM24.6539 11.2927C21.2026 11.2927 20.7695 11.3076 19.414 11.369C18.36 11.3903 17.3173 11.5901 16.3302 11.9599C15.4859 12.2865 14.7191 12.7858 14.079 13.4259C13.4389 14.0661 12.9396 14.8329 12.6131 15.6773C12.2431 16.6649 12.0433 17.708 12.0221 18.7624C11.9607 20.118 11.9459 20.549 11.9459 24.0016C11.9459 27.4542 11.9607 27.8863 12.0221 29.2419C12.0434 30.2959 12.2432 31.3387 12.6131 32.3259C12.9396 33.1703 13.4389 33.9372 14.079 34.5773C14.7191 35.2174 15.4859 35.7168 16.3302 36.0433C17.3177 36.4133 18.3607 36.6131 19.415 36.6343C20.7706 36.6957 21.2026 36.7105 24.6539 36.7105C28.1052 36.7105 28.5383 36.6957 29.8939 36.6343C30.9482 36.6131 31.9912 36.4133 32.9787 36.0433C33.8231 35.7168 34.5898 35.2174 35.2299 34.5773C35.87 33.9372 36.3693 33.1703 36.6958 32.3259C37.0654 31.3383 37.2649 30.2952 37.2857 29.2409C37.3471 27.8852 37.3619 27.4542 37.3619 24.0016C37.3619 20.549 37.3471 20.1169 37.2857 18.7613C37.2644 17.7073 37.0646 16.6645 36.6948 15.6773C36.3683 14.8329 35.869 14.0661 35.2289 13.4259C34.5888 12.7858 33.822 12.2865 32.9777 11.9599C31.9901 11.5903 30.947 11.3909 29.8928 11.37C28.5373 11.3065 28.1063 11.2927 24.6539 11.2927ZM32.9634 17.2175C32.9634 18.0597 32.2807 18.7424 31.4385 18.7424C30.5963 18.7424 29.9135 18.0597 29.9135 17.2175C29.9135 16.3753 30.5963 15.6925 31.4385 15.6925C32.2807 15.6925 32.9634 16.3753 32.9634 17.2175ZM21.0305 18.5751C22.1036 17.8581 23.3652 17.4753 24.6559 17.4753C26.3866 17.4753 28.0464 18.1629 29.2702 19.3866C30.4939 20.6104 31.1815 22.2702 31.1815 24.0009C31.1815 25.2915 30.7987 26.5532 30.0817 27.6263C29.3647 28.6994 28.3455 29.5358 27.1531 30.0298C25.9607 30.5237 24.6486 30.6529 23.3828 30.4011C22.117 30.1493 20.9542 29.5278 20.0416 28.6152C19.129 27.7026 18.5075 26.5398 18.2557 25.274C18.0039 24.0082 18.1331 22.6961 18.627 21.5037C19.1209 20.3113 19.9573 19.2921 21.0305 18.5751ZM22.3025 27.523C22.9991 27.9885 23.8181 28.2369 24.6559 28.2369C25.7793 28.2369 26.8568 27.7906 27.6512 26.9962C28.4456 26.2018 28.8919 25.1244 28.8919 24.0009C28.8919 23.1631 28.6435 22.3441 28.178 21.6475C27.7125 20.9509 27.051 20.408 26.2769 20.0874C25.5029 19.7667 24.6512 19.6828 23.8295 19.8463C23.0078 20.0097 22.253 20.4132 21.6606 21.0056C21.0682 21.598 20.6647 22.3528 20.5013 23.1745C20.3378 23.9962 20.4217 24.8479 20.7423 25.622C21.0629 26.396 21.6059 27.0576 22.3025 27.523Z" fill="#5C5C5C"/>
</g>
<defs>
<clipPath id="clip0_1_552">
<rect width="48" height="48.0033" fill="white" transform="translate(0.654785)"/>
</clipPath>
</defs>
</svg>
