<svg width="49" height="49" viewBox="0 0 49 49" fill="none" xmlns="http://www.w3.org/2000/svg">
<g clip-path="url(#clip0_1_548)">
<path fill-rule="evenodd" clip-rule="evenodd" d="M0.623047 24.0014C0.623047 10.7375 11.414 -0.0512695 24.6755 -0.0512695C37.937 -0.0512695 48.728 10.7375 48.728 24.0014C48.728 37.2653 37.937 48.054 24.6755 48.054C11.414 48.054 0.623047 37.2653 0.623047 24.0014ZM2.22805 24.0014C2.22805 36.3802 12.2975 46.4519 24.6755 46.4519C37.0535 46.4519 47.123 36.3802 47.123 24.0014C47.123 11.6225 37.0535 1.55084 24.6755 1.55084C12.2975 1.55084 2.22805 11.6225 2.22805 24.0014ZM38.2763 15.6053C38.1703 15.9389 38.0332 16.2619 37.8668 16.5699C38.0259 16.5034 38.2022 16.4899 38.3695 16.5315C38.5368 16.573 38.6863 16.6673 38.7958 16.8004C38.9054 16.9335 38.9692 17.0984 38.9777 17.2706C38.9863 17.4428 38.9392 17.6131 38.8433 17.7565C38.2106 18.7045 37.4302 19.5452 36.5318 20.2466L36.5333 20.4926C36.5333 27.7726 30.9923 35.3032 21.7223 35.3032C18.8937 35.3042 16.1244 34.4924 13.7438 32.9645C13.5914 32.8664 13.4766 32.7196 13.4181 32.5481C13.3596 32.3765 13.3607 32.1902 13.4213 32.0194C13.4845 31.8499 13.6021 31.706 13.7557 31.6105C13.9094 31.5149 14.0903 31.473 14.2703 31.4914C16.0214 31.6974 17.7947 31.3959 19.3793 30.6228C18.6078 30.3059 17.9148 29.8242 17.3489 29.2113C16.7831 28.5985 16.3579 27.8694 16.1033 27.0751C16.0605 26.9427 16.0529 26.8013 16.0813 26.6651C16.1097 26.5288 16.1732 26.4023 16.2653 26.298L16.3178 26.2455C15.0968 25.1835 14.3393 23.6204 14.3393 21.9177C14.3395 21.7739 14.3758 21.6324 14.445 21.5063C14.5142 21.3802 14.6141 21.2735 14.7353 21.1962C14.8343 21.1379 14.9431 21.0983 15.0563 21.0792C14.5946 20.2178 14.3613 19.2525 14.3786 18.2753C14.396 17.2982 14.6634 16.3417 15.1553 15.4973C15.2208 15.3856 15.3122 15.2914 15.4218 15.2227C15.5314 15.1539 15.656 15.1126 15.785 15.1023C15.914 15.092 16.0435 15.113 16.1627 15.1635C16.2818 15.2139 16.387 15.2924 16.4693 15.3923C18.6178 18.0277 21.6984 19.7349 25.0718 20.1596C25.0409 19.3888 25.166 18.6196 25.4395 17.8982C25.7131 17.1769 26.1294 16.5182 26.6637 15.9617C27.1979 15.4051 27.839 14.9622 28.5485 14.6594C29.2581 14.3567 30.0214 14.2003 30.7928 14.1997C32.2128 14.2015 33.5817 14.7289 34.6358 15.6803C35.5042 15.4676 36.3362 15.1274 37.1048 14.6707C37.2448 14.5885 37.4064 14.5506 37.5684 14.5622C37.7303 14.5737 37.8849 14.634 38.0118 14.7353C38.1387 14.8365 38.232 14.9739 38.2792 15.1292C38.3264 15.2845 38.3254 15.4505 38.2763 15.6053ZM34.9948 19.5059C35.053 19.3851 35.1405 19.2808 35.2493 19.2025C35.4079 19.0894 35.5625 18.9709 35.7128 18.847L35.4398 18.8815C35.2585 18.9015 35.0758 18.8591 34.9218 18.7613C34.7679 18.6635 34.6518 18.5162 34.5927 18.3436C34.5337 18.171 34.5352 17.9834 34.597 17.8118C34.6589 17.6402 34.7773 17.4947 34.9328 17.3994C35.0498 17.33 35.163 17.2544 35.2718 17.1729C35.0303 17.2389 34.7858 17.2959 34.5383 17.3454C34.4047 17.3718 34.2666 17.3638 34.137 17.322C34.0074 17.2803 33.8905 17.2063 33.7973 17.1069C33.176 16.4461 32.3541 16.0086 31.4591 15.862C30.564 15.7154 29.6455 15.868 28.8459 16.296C28.0462 16.7241 27.4099 17.4037 27.0354 18.2299C26.6609 19.0561 26.5692 19.9826 26.7743 20.8662C26.8313 21.1122 26.7698 21.3687 26.6093 21.5622C26.4488 21.7557 26.2178 21.8502 25.9538 21.8487C22.2257 21.6562 18.7074 20.0641 16.1018 17.3904C15.8981 18.2137 15.9534 19.0799 16.2603 19.8706C16.5671 20.6613 17.1105 21.338 17.8163 21.8082C18.1148 22.0062 18.2438 22.3798 18.1343 22.7188C18.0248 23.0578 17.6978 23.2738 17.3453 23.2753C16.9358 23.2618 16.5263 23.2033 16.1273 23.1028C16.3397 23.8174 16.7424 24.4608 17.2922 24.9641C17.842 25.4675 18.5184 25.8119 19.2488 25.9605C19.4266 25.9951 19.5874 26.089 19.705 26.2267C19.8226 26.3645 19.89 26.5381 19.8963 26.7191C19.9025 26.9001 19.8473 27.0779 19.7395 27.2235C19.6317 27.369 19.4778 27.4738 19.3028 27.5206C18.9413 27.6181 18.5693 27.6811 18.1898 27.7066C18.5635 28.2347 19.056 28.6676 19.6276 28.9704C20.1993 29.2732 20.8341 29.4374 21.4808 29.4498C21.6461 29.4532 21.8063 29.5077 21.9395 29.6057C22.0727 29.7036 22.1724 29.8404 22.2249 29.9971C22.2774 30.1539 22.2802 30.3231 22.233 30.4815C22.1857 30.64 22.0907 30.78 21.9608 30.8823C20.6271 31.9329 19.0607 32.6479 17.3933 32.9675C18.7856 33.4527 20.2495 33.7002 21.7238 33.6995C29.9903 33.6995 34.9298 26.9836 34.9298 20.4911C34.9298 20.2931 34.9253 20.0921 34.9163 19.8941C34.9097 19.7602 34.9366 19.6267 34.9948 19.5059Z" fill="#5C5C5C"/>
</g>
<defs>
<clipPath id="clip0_1_548">
<rect width="48" height="48.0033" fill="white" transform="translate(0.675781)"/>
</clipPath>
</defs>
</svg>
