<svg width="76" height="29" viewBox="0 0 76 29" fill="none" xmlns="http://www.w3.org/2000/svg">
<path d="M17.52 13.48C19.9733 14.8933 21.2 17.0267 21.2 19.88C21.2 22.2533 20.36 24.2 18.68 25.72C17 27.24 14.9333 28 12.48 28H0.6V-1.90735e-06H11.64C14.04 -1.90735e-06 16.0533 0.746665 17.68 2.24C19.3333 3.70666 20.16 5.58667 20.16 7.88C20.16 10.2 19.28 12.0667 17.52 13.48ZM11.64 5.16H6.12V11.32H11.64C12.4933 11.32 13.2 11.0267 13.76 10.44C14.3467 9.85333 14.64 9.12 14.64 8.24C14.64 7.36 14.36 6.62667 13.8 6.04C13.24 5.45333 12.52 5.16 11.64 5.16ZM12.48 22.84C13.4133 22.84 14.1867 22.5333 14.8 21.92C15.4133 21.28 15.72 20.48 15.72 19.52C15.72 18.5867 15.4133 17.8133 14.8 17.2C14.1867 16.56 13.4133 16.24 12.48 16.24H6.12V22.84H12.48ZM54.0419 -1.90735e-06V5.28H46.4819V28H40.9619V5.28H33.4419V-1.90735e-06H54.0419ZM68.0034 7.44C70.1901 7.44 71.9901 8.17333 73.4034 9.64C74.8434 11.1067 75.5634 13.1333 75.5634 15.72V28H70.4034V16.36C70.4034 15.0267 70.0434 14.0133 69.3234 13.32C68.6034 12.6 67.6434 12.24 66.4434 12.24C65.1101 12.24 64.0434 12.6533 63.2434 13.48C62.4434 14.3067 62.0434 15.5467 62.0434 17.2V28H56.8834V-1.90735e-06H62.0434V10.24C63.2968 8.37333 65.2834 7.44 68.0034 7.44Z" fill="#236E57"/>
<path d="M29.9788 27.52C29.3121 28.1867 28.5121 28.52 27.5788 28.52C26.6454 28.52 25.8454 28.1867 25.1788 27.52C24.5121 26.8533 24.1788 26.0533 24.1788 25.12C24.1788 24.1867 24.5121 23.3867 25.1788 22.72C25.8454 22.0533 26.6454 21.72 27.5788 21.72C28.5121 21.72 29.3121 22.0533 29.9788 22.72C30.6454 23.3867 30.9788 24.1867 30.9788 25.12C30.9788 26.0533 30.6454 26.8533 29.9788 27.52Z" fill="#F05830"/>
</svg>
