<svg width="117" height="45" viewBox="0 0 117 45" fill="none" xmlns="http://www.w3.org/2000/svg">
<path d="M26.256 21.6493C30.0587 23.8399 31.96 27.1466 31.96 31.5693C31.96 35.2479 30.658 38.2653 28.054 40.6213C25.45 42.9773 22.2467 44.1553 18.444 44.1553H0.0300003V0.75527H17.142C20.862 0.75527 23.9827 1.9126 26.504 4.22727C29.0667 6.5006 30.348 9.4146 30.348 12.9693C30.348 16.5653 28.984 19.4586 26.256 21.6493ZM17.142 8.75327H8.586V18.3013H17.142C18.4647 18.3013 19.56 17.8466 20.428 16.9373C21.3373 16.0279 21.792 14.8913 21.792 13.5273C21.792 12.1633 21.358 11.0266 20.49 10.1173C19.622 9.20794 18.506 8.75327 17.142 8.75327ZM18.444 36.1573C19.8907 36.1573 21.0893 35.6819 22.04 34.7313C22.9907 33.7393 23.466 32.4993 23.466 31.0113C23.466 29.5646 22.9907 28.3659 22.04 27.4153C21.0893 26.4233 19.8907 25.9273 18.444 25.9273H8.586V36.1573H18.444ZM82.8649 0.75527V8.93927H71.1469V44.1553H62.5909V8.93927H50.9349V0.75527H82.8649ZM104.505 12.2873C107.895 12.2873 110.685 13.4239 112.875 15.6973C115.107 17.9706 116.223 21.1119 116.223 25.1213V44.1553H108.225V26.1133C108.225 24.0466 107.667 22.4759 106.551 21.4013C105.435 20.2853 103.947 19.7273 102.087 19.7273C100.021 19.7273 98.3673 20.3679 97.1273 21.6493C95.8873 22.9306 95.2673 24.8526 95.2673 27.4153V44.1553H87.2693V0.75527H95.2673V16.6273C97.21 13.7339 100.289 12.2873 104.505 12.2873Z" fill="#236E57"/>
<path d="M45.5671 43.4113C44.5337 44.4446 43.2937 44.9613 41.8471 44.9613C40.4004 44.9613 39.1604 44.4446 38.1271 43.4113C37.0937 42.3779 36.5771 41.1379 36.5771 39.6913C36.5771 38.2446 37.0937 37.0046 38.1271 35.9713C39.1604 34.9379 40.4004 34.4213 41.8471 34.4213C43.2937 34.4213 44.5337 34.9379 45.5671 35.9713C46.6004 37.0046 47.1171 38.2446 47.1171 39.6913C47.1171 41.1379 46.6004 42.3779 45.5671 43.4113Z" fill="#F05830"/>
</svg>
